<svg xmlns="http://www.w3.org/2000/svg" viewBox="0 0 2552.78 808.38"><defs><style>.cls-1{fill:#eb9745;}.cls-2{fill:#0c233b;}.cls-3{fill:#646a74;}.cls-4{fill:#cab4a9;}.cls-5,.cls-6{fill:#231f20;}.cls-5{stroke:#ea9744;stroke-linecap:round;stroke-miterlimit:10;stroke-width:10px;}.cls-7{fill:#ea9744;}.cls-8{fill:#2b3a53;}.cls-9{fill:#ec9746;}.cls-10,.cls-12{fill:#0c233a;}.cls-10,.cls-11{opacity:0.8;}</style></defs><g id="Layer_2" data-name="Layer 2"><g id="Layer_1-2" data-name="Layer 1"><path class="cls-1" d="M1026.32,309.1V233q0-9-3.38-12.11c-2.25-2.06-6.39-3.1-12.39-3.1H964.9q-31.56,0-44.79-14.93t-13.24-41.42V74.13Q906.87,47.66,921,33t46.77-14.65h62q32.11,0,46.48,14.65t14.37,41.13v49.59H1025.2V83.15q0-9-3.1-12.12t-12.68-3.1H988c-6.4,0-10.71,1-13,3.1s-3.38,6.11-3.38,12.12v71.56q0,8.44,3.38,11.83c2.25,2.26,6.56,3.38,13,3.38h44.51q32.12,0,45.64,14.37t13.53,40.86v93q0,26.49-14.37,41.14t-47,14.65H969.41q-32.68,0-47-14.65T908,318.12v-49h64.8v40q0,8.46,3.38,11.84c2.26,2.25,6.57,3.38,13,3.38h21.42c6,0,10.14-1.13,12.39-3.38S1026.32,314.74,1026.32,309.1Z"/><path class="cls-2" d="M1201,83.15V237h-64.8V74.13q0-26.47,14.65-41.13t46.77-14.65h38.31V67.93h-18.59q-9.58,0-13,3.1T1201,83.15ZM1201,215v94.1q0,8.46,3.38,11.84t13,3.38h18v49.59h-37.75q-32.13,0-46.77-14.65t-14.65-41.14V215Zm62,94.1V217.82h64.8v100.3q0,26.49-14.37,41.14t-47.05,14.65h-40.57V324.32h21.41q9.58,0,12.68-3.38T1263,309.1Zm0-72.12V83.15q0-9-3.1-12.12t-12.68-3.1H1228V18.35h38.32q32.67,0,47.05,14.65t14.37,41.13V237Z"/><path class="cls-2" d="M1380.18,18.35h65.36V373.91h-65.36Zm172.42,0V67.93H1409.48V18.35Zm-19.72,157.77v47.33h-120V176.12Z"/><path class="cls-2" d="M1749.82,18.35V67.93H1560.49V18.35ZM1622.47,33.56h64.8V373.91h-64.8Z"/><path class="cls-2" d="M1870.4,18.35h64.8V373.91h-64.8ZM1898,373.91V324.32h131.86v49.59Z"/><path class="cls-2" d="M2215.82,296.71h-52.41l-47.33-171.87V373.91H2058.6V18.35h71l59.73,211.3,59.73-211.3h71V373.91h-56.91V124.28Z"/><path class="cls-2" d="M2487.41,309.1V233q0-9-3.38-12.11t-12.4-3.1H2426q-31.56,0-44.8-14.93T2368,161.47V74.13Q2368,47.66,2382,33t46.77-14.65h62q32.11,0,46.49,14.65t14.37,41.13v49.59h-65.37V83.15q0-9-3.09-12.12t-12.68-3.1h-21.42c-6.39,0-10.7,1-13,3.1s-3.38,6.11-3.38,12.12v71.56q0,8.44,3.38,11.83c2.26,2.26,6.57,3.38,13,3.38h44.52q32.11,0,45.64,14.37t13.53,40.86v93q0,26.49-14.37,41.14t-47,14.65H2430.5q-32.68,0-47.05-14.65t-14.37-41.14v-49h64.8v40q0,8.46,3.38,11.84c2.26,2.25,6.57,3.38,13,3.38h21.41q9,0,12.4-3.38T2487.41,309.1Z"/><path class="cls-2" d="M344.25,483.2A144.12,144.12,0,0,1,332,408.8a230.74,230.74,0,0,0-2,58.44c.72,7.73,1.8,15,3.08,21.72a37,37,0,0,1-16.05.83c.09-.25.15-.47.22-.65,2.74-8.11,3-22.81-8.84-51.72,8.13,22.5,5.71,35.95,1.71,44.2-.86,1.77-1.9,3.54-3,5.57-6.58-2.48-7.13-5.48-6.51-15.31q1.8-28.71,3.42-57.45c.51-9.08,3.42-16.89,10.36-23.14a6.22,6.22,0,0,0,1.14-1.41c5.74-.9,11.86,1.66,17.87,3.93,2.71,5.47,7,10.71,7.61,16.34,2.27,22.29,3.12,44.73,4.79,67.1A7.87,7.87,0,0,1,344.25,483.2Z"/><path class="cls-2" d="M747.31,439,674.59,274.78a18,18,0,0,1-27.71-9c-15.29-47-34.46-80.63-56.94-100.06a133.78,133.78,0,0,1-11.27-10.89l-4.27-2.06c-4.66-2.25-8.29-2.34-13-.08Q404.79,228.4,248,303.78c-1.58.76-3.06,1.75-5.51,3.17,3.41,1.34,5.65,2.26,7.93,3.09,20.37,7.43,40.72,14.94,61.17,22.17,4.09,1.44,5.88,3.33,5.81,7.94-.29,14.7,0,29.42-.24,44.13a11.8,11.8,0,0,1-1.63,5.6c5.74-.91,11.86,1.66,17.87,3.94-.12-.25-.25-.49-.36-.74-1.57-3.36-3.93-6.8-4.08-10.29-.5-12.19.12-24.43-.32-36.63-.22-5.69,1.84-8.31,6.88-10.49,31.9-13.81,63.66-28,95.48-42q32.37-14.26,64.75-28.42c.18.36.34.72.51,1.08-50,25.93-99.94,51.85-150.42,78.06a15.73,15.73,0,0,0,2.11,1.32q107.39,38.92,214.85,77.67a17.45,17.45,0,0,0,10.51,0c21.32-6.93,42.49-14.28,63.73-21.46,16.89-5.71,33.8-11.37,52.62-17.7-2.23,1.84-2.71,2.47-3.37,2.77Q629,412.69,571.48,438.21a12.39,12.39,0,0,1-8.3-.07c-35.31-12.49-70.54-25.22-105.8-37.87C434.7,392.13,412,384,388.61,375.65c0,22.68.18,44.57-.14,66.47-.07,5.36,1.57,7.8,6.6,9.62C451.16,472,507.14,492.63,563.21,513a14.46,14.46,0,0,0,9.08.06c56.32-20.38,112.53-41,168.83-61.43,4.73-1.72,6.29-4,6.23-9.12C747.33,441.31,747.32,440.15,747.31,439Z"/><path class="cls-3" d="M856.71,716.54c-.05.21-.12.44-.17.66,8.48,3.45,17.21,6.41,25.4,10.47,22.37,11.08,40,27.79,55.11,47.41,8,10.46,16.32,20.73,24.51,31.08a7.09,7.09,0,0,0,2.62,2.22c-.34-.92-.59-1.88-1-2.77Q943,761.09,922.82,716.54c-.48-1.08-1-2.15-1.45-3.23-.94-2.1-1.91-2.63-4.29-2.5-8.8.47-16-5.93-16.48-14.14a.62.62,0,0,1,0-.19,15.44,15.44,0,0,1,15.09-16.28c8.23-.39,15.35,6.53,15.65,15.26,0,.4,0,.8,0,1.21a14.09,14.09,0,0,1-4.69,9.79c-1.49,1.41-2,2.5-1.06,4.55.83,1.85,1.68,3.69,2.51,5.53Q948,760.23,967.77,804a8.89,8.89,0,0,1,.43,1.61l1.29-.71q-2.47-13.49-4.93-27c-3-16.44-6.5-32.79-6.5-49.65,0-4,.12-7.89.41-11.79a140.09,140.09,0,0,1,2.74-19.87A124.31,124.31,0,0,1,971.49,667a8.36,8.36,0,0,0,.41-1.43c-3.19-1.56-6.32-3.17-9.37-4.86-24.81-13.65-45.18-31.84-55.14-60.59-19.31,8.7-38.17,17.21-57.64,26a97.16,97.16,0,0,1,11.91,34.59,121.15,121.15,0,0,1-.63,35.95A186.79,186.79,0,0,1,856.71,716.54Z"/><path class="cls-4" d="M882.2,531.42l-66.58,30.05,16.36,36c3,6.57-2.39-5.65.62.91,2.1,4.55,4.12,5.33,8.77,3.24q27.15-12.2,54.27-24.46c5.24-2.37,5.89-4.09,3.59-9.19-7.94-17.58-7.57-16.34-15.54-33.9C883.27,533.19,882.71,532.34,882.2,531.42Z"/><line class="cls-5" x1="906.87" y1="585.25" x2="839.33" y2="615.01"/><path class="cls-2" d="M602,79,811.86,553l67.54-29.75-209.92-474-.05,0L602,79Z"/><path class="cls-6" d="M595.19,63.7,602,79l.06,0,67.42-29.71.05,0-6.56-14.85-.19-.43-.07,0-.94.41L595.24,63.67S595.21,63.69,595.19,63.7Z"/><path class="cls-7" d="M591.91,72.27l1.49,3.35A6.53,6.53,0,0,0,602,79l.06,0,67.42-29.71.05,0a6.53,6.53,0,0,0,3.28-8.57l-1.49-3.36A6.55,6.55,0,0,0,662.73,34l-.07,0-.94.41L595.24,63.67s0,0,0,0a6.55,6.55,0,0,0-3.28,8.57Z"/><path class="cls-8" d="M944,800H87.87A87.88,87.88,0,0,1,0,712.1H383.24A26.89,26.89,0,0,0,410.15,739h418a26.87,26.87,0,0,0,24.06-14.88l1.24.5c2.6,1.06,5.23,2.07,7.84,3.08,5.52,2.13,10.74,4.14,15.61,6.56,17.58,8.71,33.36,22.34,48.24,41.66,5.53,7.22,11.26,14.41,16.79,21.37C942.59,798.19,943.29,799.08,944,800Z"/><path class="cls-2" d="M850.42,660.51c-.09-.61-.18-1.21-.28-1.82H120.39a42,42,0,0,1-42-42V76.41a42,42,0,0,1,42-42h451A35.61,35.61,0,0,1,592.63,1.53L596.1,0H89.85A49.47,49.47,0,0,0,40.38,49.47V662.22a30.87,30.87,0,0,0,30.86,30.87H849.52c.13-.67.23-1.34.33-2A102.34,102.34,0,0,0,850.42,660.51Z"/><path class="cls-2" d="M584.21,34.38a22.87,22.87,0,0,0,1.95,8.94l9,20.38s0,0,0,0l66.48-29.29.94-.41.07,0-9-20.38A22.86,22.86,0,0,0,623.6,1.94L597.82,13.3A22.8,22.8,0,0,0,584.21,34.38Z"/><path class="cls-7" d="M664,265.34a5.24,5.24,0,0,0,1.6-.25,5.15,5.15,0,0,0,3.3-6.49c-16.63-51-38.1-88.16-63.82-110.39-14.82-12.8-21.92-24.82-36.06-48.75-2.7-4.57-9-15.27-5.71-24.48a12.84,12.84,0,0,1,4.63-6.47c6-4.14,17.26-1.5,26.67,6.27a5.15,5.15,0,0,0,6.55-7.94c-13.29-11-29-13.71-39-6.82a22.94,22.94,0,0,0-8.5,11.47c-5,13.77,3.09,27.39,6.53,33.21,14.71,24.89,22.1,37.39,38.19,51.3,24.29,21,44.73,56.58,60.76,105.79A5.16,5.16,0,0,0,664,265.34Z"/><path class="cls-2" d="M2543.11,420.15c-.71,11.25-10.36,19.85-21.62,19.85H900.72a21.07,21.07,0,0,1-14.15-5.42.91.91,0,0,1-.13-.1c-.24-.22-.48-.46-.73-.7l0,0a21.17,21.17,0,0,1-4.77-6.74L704.9,29.84a21.23,21.23,0,1,1,38.83-17.2L914.3,397.53H2521.93a21.23,21.23,0,0,1,21.18,22.62Z"/><path class="cls-9" d="M1162.23,574V543c0-2.43-.33-4-1-4.65s-2.22-1-4.65-1h-12.39q-7.29,0-10.84-3.55t-3.56-10.85V491.41q0-7.29,3.56-10.84t10.84-3.56h16q7.29,0,10.84,3.56t3.56,10.84v17.5h-12.58V493.42c0-2.43-.33-4-1-4.65s-2.22-1-4.65-1H1148c-2.31,0-3.83.33-4.56,1s-1.09,2.22-1.09,4.65v27.52c0,2.31.36,3.82,1.09,4.55s2.25,1.1,4.56,1.1h12.39q7.29,0,10.84,3.55t3.56,10.84v35q0,7.29-3.56,10.84t-10.84,3.55h-15.85q-7.3,0-10.85-3.55T1130.16,576v-17.5h12.57V574c0,2.31.37,3.83,1.1,4.56s2.24,1.09,4.55,1.09h8.2c2.43,0,4-.36,4.65-1.09S1162.23,576.28,1162.23,574Z"/><path class="cls-10" d="M1201.78,518.39v46.47h-12.39V516.38q0-7.29,3.55-10.84t10.85-3.56h9.84v10.76h-6.2c-2.31,0-3.83.33-4.56,1S1201.78,516,1201.78,518.39Zm0,35.72V574c0,2.31.37,3.83,1.09,4.56s2.25,1.09,4.56,1.09h5.65v10.75h-9.29q-7.29,0-10.85-3.55T1189.39,576V554.11Zm22.6,19.86V555.56h12.39V576q0,7.29-3.55,10.84t-10.84,3.55h-11.12V579.62h7.47c2.43,0,4-.36,4.65-1.09S1224.38,576.28,1224.38,574Zm0-9.29V518.39c0-2.43-.34-4-1-4.65s-2.22-1-4.65-1h-6.2V502h9.85q7.27,0,10.84,3.56t3.55,10.84v48.3Z"/><path class="cls-10" d="M1279.05,502v10.76H1245V502Zm-12.75-16.22V590.37h-12.58V482.85q0-7.29,3.56-10.85t10.84-3.55h10.93v11.66H1272c-2.31,0-3.83.34-4.56,1S1266.3,483.33,1266.3,485.76Z"/><path class="cls-10" d="M1314.05,502v10.76h-33.17V502Zm-12.58-14.39v85.47c0,2.31.36,3.83,1.09,4.56s2.25,1.09,4.56,1.09h6.93v11.66h-10.76q-7.29,0-10.84-3.55T1288.9,576V487.59Z"/><path class="cls-10" d="M1359.42,549.55h-12.57V516.38q0-7.29,3.55-10.84t10.84-3.56h7.29a11.84,11.84,0,0,1,7.75,2.46q3,2.46,3,8.66v11.3h-.73v-5.1q0-3.64-1.46-5.11t-4.74-1.45h-7.29c-2.31,0-3.83.33-4.55,1s-1.1,2.22-1.1,4.65Zm-12.57-6.74h12.57V574c0,2.31.37,3.83,1.1,4.56s2.24,1.09,4.55,1.09h7.29c2.19,0,3.77-.48,4.74-1.46s1.46-2.67,1.46-5.1v-4.74h.73v10.94q0,6.19-3,8.65a11.84,11.84,0,0,1-7.75,2.46h-7.29q-7.29,0-10.84-3.55T1346.85,576Zm44.28,47.56h-12.57V502h12.57Z"/><path class="cls-10" d="M1420.11,616.07h-12.58V502h12.58V616.07Zm31.71-66.52h-12.57V518.39c0-2.43-.34-4-1-4.65s-2.21-1-4.64-1h-7.29q-3.29,0-4.74,1.45c-1,1-1.46,2.68-1.46,5.11v6.19h-.73V513.1q0-6.19,3-8.66a11.81,11.81,0,0,1,7.74-2.46h7.29q7.29,0,10.85,3.56t3.55,10.84Zm-12.57-6.93h12.57V576q0,7.29-3.55,10.84t-10.85,3.55h-7.29a11.81,11.81,0,0,1-7.74-2.46q-3-2.46-3-8.65V569.05l.73-.18v4.19c0,2.43.48,4.13,1.46,5.1s2.55,1.46,4.74,1.46h7.29c2.43,0,4-.36,4.64-1.09s1-2.25,1-4.56Z"/><path class="cls-10" d="M1479.89,616.07h-12.58V502h12.58V616.07Zm31.71-66.52H1499V518.39c0-2.43-.33-4-1-4.65s-2.22-1-4.65-1h-7.29q-3.27,0-4.74,1.45t-1.45,5.11v6.19h-.73V513.1q0-6.19,3-8.66a11.86,11.86,0,0,1,7.75-2.46h7.29q7.29,0,10.84,3.56t3.56,10.84ZM1499,542.62h12.58V576q0,7.29-3.56,10.84t-10.84,3.55h-7.29a11.86,11.86,0,0,1-7.75-2.46q-3-2.46-3-8.65V569.05l.73-.18v4.19q0,3.65,1.45,5.1c1,1,2.56,1.46,4.74,1.46h7.29c2.43,0,4-.36,4.65-1.09s1-2.25,1-4.56Z"/><path class="cls-10" d="M1539.66,590.37h-12.57V502h12.57v88.39ZM1556.61,502v10.94h-5.47q-11.48,0-11.48,13.67v3.46h-.73v-13.3a16.17,16.17,0,0,1,1.55-6.57,14.92,14.92,0,0,1,4.65-5.83,12.22,12.22,0,0,1,7.65-2.37Z"/><path class="cls-10" d="M1577.2,518.39v46.47h-12.39V516.38q0-7.29,3.55-10.84t10.85-3.56h9.84v10.76h-6.2c-2.31,0-3.82.33-4.55,1S1577.2,516,1577.2,518.39Zm0,35.72V574c0,2.31.37,3.83,1.1,4.56s2.24,1.09,4.55,1.09h5.65v10.75h-9.29q-7.29,0-10.85-3.55T1564.81,576V554.11ZM1599.8,574V555.56h12.4V576q0,7.29-3.56,10.84t-10.84,3.55h-11.12V579.62h7.47c2.43,0,4-.36,4.65-1.09S1599.8,576.28,1599.8,574Zm0-9.29V518.39c0-2.43-.33-4-1-4.65s-2.22-1-4.65-1H1588V502h9.84q7.29,0,10.84,3.56t3.56,10.84v48.3Z"/><path class="cls-10" d="M1639.35,549.55h-12.57V516.38q0-7.29,3.55-10.84t10.84-3.56h7.29a11.86,11.86,0,0,1,7.75,2.46c2,1.64,3,4.53,3,8.66v11.3h-.73v-5.1q0-3.64-1.46-5.11c-1-1-2.55-1.45-4.74-1.45H1645c-2.31,0-3.83.33-4.56,1s-1.09,2.22-1.09,4.65Zm-12.57-6.74h12.57V574c0,2.31.36,3.83,1.09,4.56s2.25,1.09,4.56,1.09h7.29c2.19,0,3.76-.48,4.74-1.46s1.46-2.67,1.46-5.1v-4.74h.73v10.94c0,4.13-1,7-3,8.65a11.86,11.86,0,0,1-7.75,2.46h-7.29q-7.29,0-10.84-3.55T1626.78,576Zm44.28,47.56h-12.57V502h12.57Z"/><path class="cls-10" d="M1699.13,518.39V574c0,2.31.36,3.83,1.09,4.56s2.25,1.09,4.56,1.09h4.37v10.75H1701q-7.29,0-10.84-3.55T1686.55,576v-59.6q0-7.29,3.56-10.84T1701,502h9.48v10.76h-5.65c-2.31,0-3.83.33-4.56,1S1699.13,516,1699.13,518.39Zm20.41,9.84v-9.84c0-2.43-.34-4-1-4.65s-2.22-1-4.65-1h-6.2V502h10q7.29,0,10.84,3.56t3.55,10.84v11.85Zm0,45.74v-9.84h12.57V576q0,7.29-3.55,10.84t-10.84,3.55h-10V579.62h6.2c2.43,0,4-.36,4.65-1.09S1719.54,576.28,1719.54,574Z"/><path class="cls-10" d="M1759.27,590.37h-12.58V468.45h12.58Zm31.71,0h-12.57v-72c0-2.43-.34-4-1-4.65s-2.22-1-4.65-1h-7.29q-3.27,0-4.73,1.45c-1,1-1.46,2.68-1.46,5.11V525h-.73V513.1q0-6.19,3-8.66a11.81,11.81,0,0,1,7.74-2.46h7.29q7.29,0,10.85,3.56t3.55,10.84Z"/><path class="cls-9" d="M1696.85,757.67V728.3c0-2.3-.32-3.77-.95-4.4s-2.1-.95-4.4-.95h-11.75q-6.91,0-10.28-3.37t-3.37-10.28V679.41q0-6.9,3.37-10.28t10.28-3.37H1695q6.91,0,10.28,3.37t3.37,10.28V696h-11.92V681.31c0-2.3-.32-3.77-1-4.4s-2.1-.95-4.41-.95h-7.94c-2.19,0-3.63.31-4.32.95s-1,2.1-1,4.4V707.4c0,2.19.35,3.63,1,4.32s2.13,1,4.32,1h11.74q6.92,0,10.28,3.37t3.37,10.28v33.17q0,6.91-3.37,10.28t-10.28,3.37h-15q-6.9,0-10.28-3.37t-3.36-10.28V743h11.92v14.68c0,2.19.34,3.63,1,4.32s2.13,1,4.32,1h7.78c2.3,0,3.77-.35,4.4-1S1696.85,759.86,1696.85,757.67Z"/><path class="cls-10" d="M1748,689.43v10.19h-31.44V689.43Zm-11.92-13.65v81c0,2.19.34,3.63,1,4.32s2.13,1,4.31,1H1748v11.05H1737.8q-6.91,0-10.28-3.37t-3.37-10.28V675.78Z"/><path class="cls-10" d="M1769.41,773.22h-11.92V689.43h11.92v83.79Zm16.07-83.79V699.8h-5.19q-10.87,0-10.88,13V716h-.69V703.43a15.21,15.21,0,0,1,1.47-6.22,14.14,14.14,0,0,1,4.4-5.53,11.59,11.59,0,0,1,7.26-2.25Z"/><path class="cls-10" d="M1805,705V749h-11.75v-46q0-6.92,3.37-10.28t10.28-3.37h9.33v10.19h-5.88c-2.18,0-3.62.32-4.31,1S1805,702.68,1805,705Zm0,33.86v18.83c0,2.19.34,3.63,1,4.32s2.13,1,4.31,1h5.36v10.19h-8.81q-6.92,0-10.28-3.37t-3.37-10.28V738.84Zm21.42,18.83V740.22h11.75v19.35q0,6.91-3.37,10.28t-10.28,3.37H1814V763h7.09c2.3,0,3.77-.35,4.4-1S1826.42,759.86,1826.42,757.67Zm0-8.81V705c0-2.3-.32-3.77-1-4.41s-2.1-1-4.4-1h-5.88V689.43h9.33q6.92,0,10.28,3.37t3.37,10.28v45.78Z"/><path class="cls-10" d="M1864.77,773.22h-11.92V689.43h11.92v83.79Zm30.06,0h-11.92V705c0-2.3-.31-3.77-1-4.41s-2.1-1-4.4-1h-6.91c-2.07,0-3.57.47-4.49,1.39s-1.39,2.53-1.39,4.83v5.88h-.69V700q0-5.87,2.85-8.21a11.26,11.26,0,0,1,7.35-2.33h6.91q6.9,0,10.28,3.37t3.36,10.28Z"/><path class="cls-10" d="M1921.44,734.52h-11.92V703.08q0-6.92,3.37-10.28t10.28-3.37h6.91a11.25,11.25,0,0,1,7.34,2.33q2.85,2.34,2.85,8.21v11.75h-.69v-5.88q0-3.45-1.38-4.83a6.19,6.19,0,0,0-4.49-1.39h-6.92c-2.18,0-3.62.32-4.31,1s-1,2.11-1,4.41ZM1909.52,728h11.92v29.71c0,2.19.35,3.63,1,4.32s2.13,1,4.31,1h6.92c2.07,0,3.56-.46,4.49-1.38s1.38-2.54,1.38-4.84v-4l.69.17v9.67q0,5.88-2.85,8.21a11.25,11.25,0,0,1-7.34,2.33h-6.91q-6.92,0-10.28-3.37t-3.37-10.28ZM1939.58,782V771.49h11.92v12.44q0,6.92-3.37,10.28t-10.28,3.37h-25.74V787.39h22.11c2.31,0,3.78-.35,4.41-1S1939.58,784.22,1939.58,782Zm11.92-8.46h-11.92V689.43h11.92Z"/><path class="cls-9" d="M2024.4,712.75V681.31c0-2.3-.32-3.77-1-4.4s-2.1-.95-4.4-.95h-27.82v-10.2h31.27q6.91,0,10.28,3.37t3.37,10.28v35.24q0,6.92-3.37,10.28t-10.28,3.37h-24.18V718.11h20.73c2.3,0,3.77-.35,4.4-1S2024.4,714.94,2024.4,712.75Zm-33.17-47H2003V773.22h-11.75Zm20.39,58h12.26l17.8,49.41H2028.9Z"/><path class="cls-9" d="M2064.31,705v52.69c0,2.19.35,3.63,1,4.32s2.13,1,4.32,1h4.14v10.19H2066q-6.91,0-10.28-3.37t-3.37-10.28V703.08q0-6.92,3.37-10.28t10.28-3.37h9v10.19h-5.35c-2.19,0-3.63.32-4.32,1S2064.31,702.68,2064.31,705Zm31.27,20.21v10.2h-38v-10.2Zm-11.92,8.47V705c0-2.3-.32-3.77-.95-4.41s-2.1-1-4.4-1h-5.88V689.43h9.5q6.92,0,10.28,3.37t3.37,10.28v30.58Zm-.52,24v-7.6h11.92v9.5q0,6.91-3.37,10.28t-10.27,3.37h-9V763h5.36c2.3,0,3.77-.35,4.4-1S2083.14,759.86,2083.14,757.67Z"/><path class="cls-9" d="M2135.14,757.85V742c0-2.3-.32-3.77-.95-4.4s-2.1-.95-4.4-.95h-8.47q-6.92,0-10.28-3.37T2107.67,723V703.08q0-6.92,3.37-10.28t10.28-3.37h11.75q6.9,0,10.28,3.37t3.37,10.28v8.47H2135v-6.74c0-2.31-.32-3.77-.95-4.41s-2.1-.95-4.41-.95h-4.83c-2.19,0-3.63.32-4.32.95s-1,2.1-1,4.41v16.41c0,2.19.35,3.63,1,4.32s2.13,1,4.32,1h8.46q6.91,0,10.28,3.36t3.37,10.28v19.35q0,6.91-3.37,10.28t-10.28,3.37h-11.57q-6.91,0-10.28-3.37T2108,759.57v-8.46h11.75v6.74c0,2.19.34,3.62,1,4.32s2.13,1,4.32,1h4.67c2.3,0,3.77-.34,4.4-1S2135.14,760,2135.14,757.85Z"/><path class="cls-9" d="M2160.71,689.43h11.92v68.24c0,2.19.35,3.63,1,4.32s2.13,1,4.32,1h6.91c2.07,0,3.57-.46,4.49-1.38s1.38-2.54,1.38-4.84v-5.87h.69v11.74q0,5.88-2.85,8.21a11.25,11.25,0,0,1-7.34,2.33h-6.91q-6.92,0-10.28-3.37t-3.37-10.28Zm30.06,0h11.92v83.79h-11.92V689.43Z"/><path class="cls-9" d="M2230.16,773.22h-11.92V657.64h11.92Z"/><path class="cls-9" d="M2270.24,689.43v10.19H2238.8V689.43Zm-11.92-13.65v81c0,2.19.35,3.63,1,4.32s2.13,1,4.32,1h6.56v11.05h-10.19q-6.91,0-10.28-3.37t-3.37-10.28V675.78Z"/><path class="cls-9" d="M2305.48,757.85V742c0-2.3-.31-3.77-.95-4.4s-2.1-.95-4.4-.95h-8.47q-6.91,0-10.28-3.37T2278,723V703.08q0-6.92,3.37-10.28t10.28-3.37h11.75q6.91,0,10.28,3.37t3.37,10.28v8.47h-11.75v-6.74c0-2.31-.32-3.77-.95-4.41s-2.1-.95-4.4-.95h-4.84c-2.19,0-3.63.32-4.32.95s-1,2.1-1,4.41v16.41c0,2.19.35,3.63,1,4.32s2.13,1,4.32,1h8.46q6.91,0,10.28,3.36t3.37,10.28v19.35q0,6.91-3.37,10.28t-10.28,3.37H2292q-6.91,0-10.28-3.37t-3.37-10.28v-8.46h11.75v6.74c0,2.19.34,3.62,1,4.32s2.13,1,4.32,1h4.67c2.3,0,3.77-.34,4.4-1S2305.48,760,2305.48,757.85Z"/><g class="cls-11"><path class="cls-12" d="M1627.13,671.3V776.18a9.45,9.45,0,0,1-9.45,9.47h-3.23a9.47,9.47,0,0,1-9.46-9.47V671.3a9.45,9.45,0,0,1,9.46-9.45h3.23A9.44,9.44,0,0,1,1627.13,671.3Z"/></g><g class="cls-11"><path class="cls-12" d="M1605,712.67v22.14h-377.9a9.47,9.47,0,0,1-9.47-9.45v-3.23a9.47,9.47,0,0,1,9.47-9.46Z"/></g><g class="cls-11"><rect class="cls-12" x="1157.85" y="712.67" width="46.57" height="22.14" rx="7.23"/></g><g class="cls-11"><rect class="cls-12" x="1122.51" y="712.67" width="22.14" height="22.14" rx="7.23"/></g><g class="cls-11"><path class="cls-12" d="M1840.79,484.85V602.92a9.45,9.45,0,0,1-9.46,9.45h-3.23a9.46,9.46,0,0,1-9.45-9.45V484.85a9.46,9.46,0,0,1,9.45-9.45h3.23A9.45,9.45,0,0,1,1840.79,484.85Z"/></g><g class="cls-11"><path class="cls-12" d="M2228.16,542.27v3.23a9.46,9.46,0,0,1-9.45,9.45H1840.79V532.82h377.92A9.46,9.46,0,0,1,2228.16,542.27Z"/></g><g class="cls-11"><rect class="cls-12" x="2241.36" y="532.81" width="46.57" height="22.14" rx="7.23"/></g><g class="cls-11"><rect class="cls-12" x="2301.14" y="532.81" width="22.14" height="22.14" rx="7.23"/></g></g></g></svg>